HIERARCHY
ROOT Hips
{
	OFFSET 0.000000 0.000000 0.000000
	CHANNELS 6 Xposition Yposition Zposition Xrotation Yrotation Zrotation
	JOINT LeftUpLeg_virtual
	{
		OFFSET 0.000000 0.000000 0.000000
		CHANNELS 3 Xrotation Yrotation Zrotation
		JOINT LeftUpLeg
		{
			OFFSET 15.427100 -6.655098 0.678600
			CHANNELS 3 Xrotation Yrotation Zrotation
			JOINT LeftLeg
			{
				OFFSET 4.081073 -39.591068 13.024000
				CHANNELS 3 Xrotation Yrotation Zrotation
				JOINT LeftFoot
				{
					OFFSET -4.081074 -37.707932 -15.979700
					CHANNELS 3 Xrotation Yrotation Zrotation
					JOINT LeftToeBase
					{
						OFFSET 5.346399 -15.068900 20.645000
						CHANNELS 3 Xrotation Yrotation Zrotation
						JOINT LeftToe_End
						{
							OFFSET 2.754700 0.931300 11.300900
							CHANNELS 3 Xrotation Yrotation Zrotation
							End Site
							{
								OFFSET 0 0 0
							}
						}
					}
				}
			}
		}
	}
	JOINT RightUpLeg_virtual
	{
		OFFSET 0.000000 0.000000 0.000000
		CHANNELS 3 Xrotation Yrotation Zrotation
		JOINT RightUpLeg
		{
			OFFSET -15.569500 -6.655098 0.678600
			CHANNELS 3 Xrotation Yrotation Zrotation
			JOINT RightLeg
			{
				OFFSET -4.081825 -39.591045 13.023800
				CHANNELS 3 Xrotation Yrotation Zrotation
				JOINT RightFoot
				{
					OFFSET 4.081824 -37.707954 -15.979600
					CHANNELS 3 Xrotation Yrotation Zrotation
					JOINT RightToeBase
					{
						OFFSET -5.346400 -15.068900 20.645000
						CHANNELS 3 Xrotation Yrotation Zrotation
						JOINT RightToe_End
						{
							OFFSET -2.754700 0.931300 11.300900
							CHANNELS 3 Xrotation Yrotation Zrotation
							End Site
							{
								OFFSET 0 0 0
							}
						}
					}
				}
			}
		}
	}
	JOINT Spine_virtual
	{
		OFFSET 0.000000 0.000000 0.000000
		CHANNELS 3 Xrotation Yrotation Zrotation
		JOINT Spine
		{
			OFFSET -0.279200 12.230698 -2.892100
			CHANNELS 3 Xrotation Yrotation Zrotation
			JOINT Spine1
			{
				OFFSET -0.232667 10.192268 -1.242267
				CHANNELS 3 Xrotation Yrotation Zrotation
				JOINT Spine1_split
				{
					OFFSET -0.232667 10.192268 -1.242267
					CHANNELS 3 Xrotation Yrotation Zrotation
					JOINT Spine2
					{
						OFFSET -0.232667 10.192268 -1.242267
						CHANNELS 3 Xrotation Yrotation Zrotation
						JOINT Neck_virtual
						{
							OFFSET 0.000000 0.000000 0.000000
							CHANNELS 3 Xrotation Yrotation Zrotation
							JOINT Neck
							{
								OFFSET -0.418800 17.814194 8.416900
								CHANNELS 3 Xrotation Yrotation Zrotation
								JOINT Head
								{
									OFFSET 0.000000 7.031097 3.806800
									CHANNELS 3 Xrotation Yrotation Zrotation
									JOINT HeadTop_End
									{
										OFFSET 0.000000 24.646606 12.978600
										CHANNELS 3 Xrotation Yrotation Zrotation
										End Site
										{
											OFFSET 0 0 0
										}
									}
								}
							}
						}
						JOINT LeftShoulder_virtual
						{
							OFFSET 0.000000 0.000000 0.000000
							CHANNELS 3 Xrotation Yrotation Zrotation
							JOINT LeftShoulder
							{
								OFFSET 8.476499 7.247704 -3.868750
								CHANNELS 3 Xrotation Yrotation Zrotation
								JOINT LeftShoulder_split
								{
									OFFSET 8.476499 7.247704 -3.868750
									CHANNELS 3 Xrotation Yrotation Zrotation
									JOINT LeftArm
									{
										OFFSET 9.308998 -2.777710 0.208600
										CHANNELS 3 Xrotation Yrotation Zrotation
										JOINT LeftForeArm
										{
											OFFSET 29.972298 0.000000 0.000000
											CHANNELS 3 Xrotation Yrotation Zrotation
											JOINT LeftHand
											{
												OFFSET 26.026505 0.000000 0.000000
												CHANNELS 3 Xrotation Yrotation Zrotation
												End Site
												{
													OFFSET 0 0 0
												}
											}
										}
									}
								}
							}
						}
						JOINT RightShoulder_virtual
						{
							OFFSET 0.000000 0.000000 0.000000
							CHANNELS 3 Xrotation Yrotation Zrotation
							JOINT RightShoulder
							{
								OFFSET -7.570500 7.247704 -3.868750
								CHANNELS 3 Xrotation Yrotation Zrotation
								JOINT RightShoulder_split
								{
									OFFSET -7.570500 7.247704 -3.868750
									CHANNELS 3 Xrotation Yrotation Zrotation
									JOINT RightArm
									{
										OFFSET -9.308998 -2.777710 0.208500
										CHANNELS 3 Xrotation Yrotation Zrotation
										JOINT RightForeArm
										{
											OFFSET -29.972300 0.000000 0.000000
											CHANNELS 3 Xrotation Yrotation Zrotation
											JOINT RightHand
											{
												OFFSET -26.026505 0.000000 0.000000
												CHANNELS 3 Xrotation Yrotation Zrotation
												End Site
												{
													OFFSET 0 0 0
												}
											}
										}
									}
								}
							}
						}
					}
				}
			}
		}
	}
}
MOTION
Frames: 5
Frame Time: 0.03333333
1.607080 92.766403 -2.483578 0.000000 0.000000 0.000000 -3.467390 4.161962 -2.342314 -7.810721 8.469121 13.599579 18.212378 -5.336663 -0.616614 -7.649767 2.365184 -6.918445 0.281039 0.325038 -1.265641 0.000000 0.000000 0.000000 -3.322317 5.296138 -2.544827 -9.513146 -4.916364 -3.932604 13.437168 3.393746 2.094775 -1.991323 1.113846 -0.324248 1.176224 -0.122682 0.811769 0.000000 0.000000 0.000000 -3.936566 6.476048 -2.453313 9.664496 -0.796849 1.537344 1.867738 0.099097 -0.171831 0.176516 -1.162333 0.853314 0.000000 0.000000 0.000000 -4.115926 -0.111579 0.416671 0.083151 -0.597665 0.370788 4.903229 -1.685342 -1.807277 0.000000 0.000000 0.000000 -4.117194 -0.309619 0.420085 0.386877 -3.145348 -6.217914 -2.517727 -1.324834 0.347949 6.765311 -5.350953 -73.659957 5.983704 -8.434543 2.640057 0.000000 0.000000 0.000000 -4.645613 -0.506570 0.470306 0.978227 7.453592 5.852950 -4.566987 -1.375620 0.233284 5.118701 12.948896 73.842295 17.805297 18.693202 -2.926787 0.000000 0.000000 0.000000 
1.593824 92.847824 -2.335955 0.000000 0.000000 0.000000 -3.331516 4.006383 -2.404103 -7.755405 8.448569 13.766978 17.871318 -5.165358 -0.729061 -7.956795 2.227146 -6.712243 0.532164 0.308469 -1.197917 0.000000 0.000000 0.000000 -3.260360 5.010395 -2.575261 -9.471740 -4.783987 -3.792383 13.608826 3.468215 2.042072 -2.057825 1.239379 -0.498601 1.496200 -0.150934 0.889608 0.000000 0.000000 0.000000 -3.619458 6.394634 -2.453562 9.773609 -0.728774 1.579350 1.884595 0.060795 -0.195383 0.451157 -1.531173 0.831141 0.000000 0.000000 0.000000 -4.115261 -0.120356 0.394218 0.094434 -0.518437 0.324716 5.089409 -1.826691 -1.683667 0.000000 0.000000 0.000000 -4.110247 -0.341618 0.399527 0.444111 -3.384469 -6.317612 -2.360481 -1.313751 0.528294 6.481487 -5.258855 -73.814674 5.959435 -8.607034 2.584403 0.000000 0.000000 0.000000 -4.638511 -0.515572 0.486789 1.026665 7.446738 5.999280 -4.498209 -1.364368 0.104105 5.300996 12.806532 73.792291 17.783533 18.862715 -2.941654 0.000000 0.000000 0.000000 
1.547563 92.862343 -2.176809 0.000000 0.000000 0.000000 -3.220442 3.712353 -2.479447 -7.706790 8.515647 14.027490 17.526134 -4.864712 -0.645979 -8.356124 2.013863 -6.597666 0.751895 0.262677 -1.039371 0.000000 0.000000 0.000000 -3.162609 4.692558 -2.645287 -9.684804 -4.633851 -3.626721 13.935246 3.618813 2.051940 -2.075810 1.426686 -0.713133 1.706547 -0.151928 0.869218 0.000000 0.000000 0.000000 -3.339218 6.104450 -2.448509 10.096094 -0.653573 1.658118 1.813006 0.015193 -0.208684 0.577038 -1.756997 0.709329 0.000000 0.000000 0.000000 -4.139668 -0.147460 0.384612 0.153286 -0.368167 0.295774 5.174679 -1.909203 -1.627172 0.000000 0.000000 0.000000 -4.143434 -0.392583 0.398363 0.500452 -3.720569 -6.464406 -2.172432 -1.204504 0.759911 6.240410 -5.130925 -73.843702 6.041859 -8.703124 2.445909 0.000000 0.000000 0.000000 -4.681890 -0.550393 0.503419 1.061874 7.340073 6.312011 -4.457367 -1.274623 -0.098731 5.706290 13.053787 73.393456 17.669874 19.124074 -2.902160 0.000000 0.000000 0.000000 
1.469029 92.795822 -2.004656 0.000000 0.000000 0.000000 -3.128211 3.370301 -2.531050 -7.590078 8.623021 14.301830 17.288291 -4.521248 -0.438019 -8.731448 1.720536 -6.675101 0.794008 0.193588 -0.790389 0.000000 0.000000 0.000000 -3.047108 4.338740 -2.702664 -10.155293 -4.543570 -3.492706 14.388021 3.835168 2.151253 -1.977251 1.650274 -0.911204 1.692747 -0.130655 0.760897 0.000000 0.000000 0.000000 -3.125959 5.596723 -2.409039 10.542609 -0.590968 1.717922 1.646518 -0.035509 -0.192371 0.509137 -1.799928 0.579284 0.000000 0.000000 0.000000 -4.171392 -0.187529 0.400706 0.265637 -0.166499 0.277514 5.131609 -1.945852 -1.622661 0.000000 0.000000 0.000000 -4.208528 -0.455925 0.430104 0.558424 -4.058625 -6.632991 -2.158662 -1.020398 0.891501 6.085506 -4.989667 -73.717754 6.219548 -8.696128 2.243689 0.000000 0.000000 0.000000 -4.776498 -0.605608 0.533801 1.090085 7.135157 6.732827 -4.457719 -1.179102 -0.375745 6.260014 13.652320 72.709918 17.465519 19.459902 -2.815805 0.000000 0.000000 0.000000 
1.350920 92.700600 -1.788656 0.000000 0.000000 0.000000 -3.030334 2.975473 -2.525144 -7.271095 8.741461 14.510368 17.144432 -4.121145 -0.203726 -9.047643 1.387630 -6.850130 0.641980 0.119792 -0.519792 0.000000 0.000000 0.000000 -2.915671 3.900491 -2.707060 -10.871676 -4.567154 -3.460692 14.907615 4.110071 2.333041 -1.675583 1.888659 -1.021844 1.454737 -0.094402 0.601833 0.000000 0.000000 0.000000 -2.961903 4.878124 -2.318585 10.986182 -0.560166 1.716701 1.409643 -0.090543 -0.132343 0.400478 -1.701277 0.518776 0.000000 0.000000 0.000000 -4.195302 -0.238223 0.457172 0.413414 0.074548 0.282347 4.955984 -1.946060 -1.658797 0.000000 0.000000 0.000000 -4.291660 -0.524064 0.505796 0.613960 -4.333352 -6.828417 -2.326210 -0.811486 0.867821 6.002147 -4.837789 -73.423837 6.462734 -8.589683 1.998002 0.000000 0.000000 0.000000 -4.896653 -0.675181 0.598468 1.131115 6.829612 7.178481 -4.438243 -1.144069 -0.697036 6.888700 14.525523 71.826406 17.189001 19.815012 -2.697984 0.000000 0.000000 0.000000 
